<?xml version="1.0" standalone="no"?>
<!DOCTYPE svg PUBLIC "-//W3C//DTD SVG 20010904//EN"
 "http://www.w3.org/TR/2001/REC-SVG-20010904/DTD/svg10.dtd">
<svg version="1.0" xmlns="http://www.w3.org/2000/svg"
 width="930.000000pt" height="926.000000pt" viewBox="0 0 930.000000 926.000000"
 preserveAspectRatio="xMidYMid meet">

<g transform="translate(0.000000,926.000000) scale(0.100000,-0.100000)"
fill="#000000" stroke="none">
<path d="M8461 6473 c-41 -21 -83 -76 -127 -169 -43 -87 -58 -171 -42 -232 10
-40 8 -49 -17 -103 -16 -32 -32 -59 -36 -59 -4 0 -19 19 -33 42 -22 37 -23 44
-10 62 23 34 17 80 -19 132 -201 296 -228 333 -242 328 -8 -4 -15 -10 -15 -15
0 -4 45 -81 100 -170 74 -121 97 -166 89 -175 -6 -7 -16 -11 -22 -8 -7 3 -59
74 -117 159 -68 100 -110 154 -120 152 -8 -2 -14 -9 -12 -17 2 -7 41 -84 89
-172 77 -144 92 -188 64 -188 -13 0 -32 28 -131 190 -45 74 -83 136 -85 138
-4 5 -35 -10 -35 -18 0 -13 212 -385 231 -405 13 -13 33 -20 64 -20 45 -1 47
-3 80 -59 19 -31 35 -59 35 -62 0 -2 -76 -4 -168 -4 -117 0 -172 -4 -180 -12
-9 -9 -12 -249 -12 -1019 0 -909 2 -1007 16 -1013 9 -3 207 -6 440 -6 l424 0
0 150 0 150 -265 0 -265 0 0 295 0 295 213 2 212 3 0 140 0 140 -212 3 -213 2
0 275 0 275 265 0 265 0 0 160 0 160 -170 0 c-93 0 -170 2 -170 5 0 3 20 45
44 93 37 75 49 89 79 100 52 19 124 102 167 195 47 100 57 160 37 209 -28 68
-130 105 -196 71z m199 -833 l0 -140 -270 0 -270 0 0 -279 c0 -154 3 -286 6
-295 5 -14 34 -16 215 -16 l209 0 0 -130 0 -130 -215 0 -215 0 2 -307 3 -308
268 -3 267 -2 0 -130 0 -130 -425 0 -425 0 0 1005 0 1005 425 0 425 0 0 -140z"/>
<path d="M690 4770 l0 -1010 155 0 155 0 0 430 0 430 180 0 180 0 0 -430 0
-430 165 0 165 0 0 1010 0 1010 -162 -2 -163 -3 -3 -433 -2 -432 -178 2 -177
3 -3 433 -2 432 -155 0 -155 0 0 -1010z"/>
<path d="M2475 5768 c-2 -7 -74 -452 -160 -988 -85 -536 -157 -985 -160 -998
l-6 -23 148 3 147 3 27 180 c15 99 28 181 28 183 1 1 87 2 191 2 143 0 192 -3
195 -12 4 -11 55 -338 55 -352 0 -3 72 -6 160 -6 88 0 160 2 160 5 0 3 -72
455 -160 1005 -88 550 -160 1002 -160 1005 0 3 -104 5 -230 5 -176 0 -232 -3
-235 -12z m295 -873 c38 -259 70 -476 70 -483 0 -9 -39 -12 -150 -12 -82 0
-150 3 -150 8 0 4 14 97 30 207 17 110 48 324 71 475 22 151 43 282 46 290 8
20 2 55 83 -485z"/>
<path d="M3730 4770 l0 -1010 420 0 421 0 -3 143 -3 142 -262 3 -263 2 0 865
0 865 -155 0 -155 0 0 -1010z"/>
<path d="M5260 5776 c0 -3 -72 -455 -160 -1004 -88 -550 -160 -1003 -160
-1006 0 -3 65 -6 144 -6 l144 0 11 68 c6 37 19 119 29 182 l17 115 192 3 193
2 5 -22 c3 -13 14 -86 25 -163 11 -77 23 -150 25 -162 5 -23 8 -23 165 -23
l160 0 -5 23 c-3 12 -75 461 -160 997 -86 536 -158 981 -160 988 -3 9 -59 12
-235 12 -126 0 -230 -2 -230 -4z m290 -847 c38 -255 72 -479 75 -496 l6 -33
-151 0 c-113 0 -150 3 -150 13 -1 23 144 986 148 983 2 -2 34 -213 72 -467z"/>
<path d="M6510 4770 l0 -1010 420 0 420 0 0 145 0 145 -260 0 -260 0 0 865 0
865 -160 0 -160 0 0 -1010z"/>
</g>
</svg>
