<?xml version="1.0" standalone="no"?>
<!DOCTYPE svg PUBLIC "-//W3C//DTD SVG 20010904//EN"
 "http://www.w3.org/TR/2001/REC-SVG-20010904/DTD/svg10.dtd">
<svg version="1.0" xmlns="http://www.w3.org/2000/svg"
 width="1392.000000pt" height="877.000000pt" viewBox="0 0 1392.000000 877.000000"
 preserveAspectRatio="xMidYMid meet">

<g transform="translate(0.000000,877.000000) scale(0.100000,-0.100000)"
fill="#000000" stroke="none">
<path d="M0 4385 l0 -4385 6960 0 6960 0 0 4385 0 4385 -6960 0 -6960 0 0
-4385z m6965 2519 c20 -8 47 -26 58 -40 l22 -25 45 20 c107 49 237 3 297 -104
9 -15 14 -14 59 4 134 52 253 7 318 -122 23 -45 32 -53 58 -55 77 -6 138 -73
154 -169 6 -38 9 -41 58 -56 119 -38 184 -137 195 -296 l6 -95 57 -32 c71 -40
112 -84 140 -154 22 -53 23 -66 23 -375 0 -353 -5 -401 -60 -575 -73 -233
-189 -422 -366 -600 -107 -107 -108 -108 -98 -142 12 -41 13 -183 1 -224 -37
-121 -168 -225 -305 -239 -128 -14 -264 49 -336 155 l-35 51 -55 -8 c-31 -4
-133 -7 -226 -6 l-170 2 -28 -44 c-31 -48 -102 -105 -163 -132 -59 -25 -206
-23 -264 3 -134 61 -199 147 -225 299 -3 17 0 59 7 94 l12 63 -34 30 c-124
106 -290 293 -290 326 0 8 26 12 81 12 l82 0 96 -98 c53 -55 109 -107 124
-117 27 -18 29 -17 58 4 17 12 53 33 82 46 44 21 65 24 147 22 83 -2 102 -6
150 -31 30 -15 72 -44 93 -65 46 -43 98 -145 105 -206 4 -42 7 -45 41 -52 50
-9 203 -9 283 0 l67 8 6 47 c9 65 23 99 66 158 72 98 162 144 287 145 74 1
136 -16 190 -52 l43 -29 28 21 c94 70 237 250 319 402 58 106 132 356 132 443
l0 24 -1362 0 -1363 -1 0 188 0 188 1366 3 1366 2 7 92 c6 83 5 95 -16 136
-20 38 -36 51 -113 92 l-90 48 0 114 c0 177 -33 225 -170 244 -82 11 -85 15
-85 97 0 96 -12 113 -66 98 -62 -17 -71 -14 -85 27 -7 20 -12 40 -11 45 1 4
-2 7 -7 7 -5 0 -11 14 -15 31 -9 45 -66 99 -105 99 -28 0 -127 -44 -141 -62
-3 -4 -20 -11 -37 -14 -30 -6 -33 -3 -60 46 -38 71 -78 117 -108 124 -25 6
-53 -3 -142 -48 l-43 -21 -58 58 c-48 48 -63 57 -93 57 -41 0 -56 -18 -141
-162 -28 -49 -56 -88 -61 -88 -5 0 -39 25 -75 55 -98 82 -115 76 -176 -58
l-35 -77 -55 0 c-64 0 -72 -9 -100 -120 -9 -36 -21 -69 -26 -74 -5 -5 -27 -10
-48 -12 -46 -3 -88 -23 -119 -56 -33 -35 -105 -272 -95 -311 2 -8 -24 -20 -85
-36 -70 -19 -125 -95 -147 -203 -5 -23 -11 -26 -58 -30 -29 -2 -59 -2 -66 0
-21 7 -5 96 31 175 34 76 113 157 170 176 32 11 34 16 51 89 40 176 114 276
237 321 19 7 31 24 48 70 28 76 74 124 133 139 40 10 47 17 68 61 56 121 161
162 278 111 l43 -19 19 32 c39 67 76 110 110 128 44 23 143 25 195 3z m139
-443 c11 -12 16 -31 14 -52 -2 -27 -12 -39 -46 -62 -42 -28 -60 -57 -93 -145
-21 -57 -92 -62 -116 -9 -12 27 1 99 28 152 54 105 167 167 213 116z m536 -1
c11 -11 20 -33 20 -50 0 -26 -8 -36 -53 -64 -38 -24 -59 -46 -72 -76 -20 -45
-40 -60 -79 -60 -50 0 -70 63 -40 123 61 118 171 180 224 127z m-1020 -57 c17
-22 20 -35 14 -68 -19 -117 -84 -191 -185 -210 -43 -8 -89 23 -89 61 0 30 41
74 69 74 28 0 67 52 75 99 11 69 76 94 116 44z m737 -298 c66 -47 -6 -195
-122 -250 -65 -31 -80 -31 -110 -1 -18 18 -23 31 -19 52 6 33 21 54 39 54 27
0 93 60 105 94 19 59 65 81 107 51z m321 -19 c112 -59 184 -243 115 -293 -41
-31 -103 2 -103 53 0 27 -28 94 -39 94 -3 0 -23 16 -43 35 -46 41 -49 75 -12
104 31 25 46 26 82 7z m-1418 -46 c68 -68 -57 -300 -162 -300 -37 0 -71 37
-63 69 4 14 28 47 55 73 42 41 50 56 56 99 10 74 68 105 114 59z m394 -31 c13
-7 30 -26 36 -43 28 -78 52 -112 95 -138 38 -23 45 -32 45 -59 0 -69 -66 -90
-134 -44 -20 13 -36 22 -36 18 0 -3 -12 12 -28 33 -34 47 -59 106 -68 156 -5
31 -2 41 20 62 28 29 35 31 70 15z m-748 -1012 c38 -33 37 -81 0 -114 l-28
-24 -320 3 -320 3 -19 24 c-27 34 -24 77 7 106 l27 25 313 0 313 0 27 -23z
m217 -279 c24 -23 22 -83 -3 -108 -19 -19 -33 -20 -284 -20 l-265 0 -21 27
c-27 34 -23 81 8 108 22 19 34 20 286 15 228 -4 265 -7 279 -22z m-2517 -1989
c104 -32 144 -60 216 -149 54 -68 72 -128 72 -245 1 -90 -2 -106 -27 -157 -31
-63 -86 -134 -123 -159 -13 -8 -23 -17 -22 -20 2 -2 1 -3 -1 -2 -2 2 -18 -6
-35 -16 -57 -35 -153 -54 -242 -47 -103 8 -163 26 -230 70 -229 152 -231 514
-4 671 106 73 264 95 396 54z m1509 -3 c142 -45 237 -146 270 -289 39 -169
-17 -323 -154 -425 -173 -130 -461 -99 -599 63 -57 68 -84 139 -90 237 -6 103
7 160 54 238 101 171 311 242 519 176z m4365 7 c118 -34 222 -124 267 -232 23
-56 27 -80 27 -161 0 -79 -5 -105 -26 -154 -40 -93 -108 -166 -198 -214 -24
-13 -84 -27 -166 -38 -56 -7 -189 19 -244 48 -53 28 -135 110 -161 160 -74
146 -59 328 37 449 60 76 145 127 259 153 32 7 167 0 205 -11z m2565 6 c75
-14 165 -54 165 -73 0 -8 -5 -27 -12 -41 -13 -29 -13 -29 -101 8 -149 63 -327
10 -327 -98 0 -73 43 -111 156 -139 153 -37 237 -72 279 -116 26 -27 30 -40
33 -100 2 -38 1 -81 -2 -95 -9 -34 -62 -93 -105 -115 -46 -23 -183 -44 -230
-35 -20 4 -46 9 -58 10 -57 8 -142 46 -171 79 -17 19 -18 24 -6 54 15 35 34
41 54 17 34 -41 169 -79 258 -73 80 6 126 27 152 71 50 81 3 152 -121 182 -38
10 -109 30 -157 45 -127 41 -182 103 -182 204 0 60 14 94 58 139 71 74 184
101 317 76z m-9625 -69 l0 -70 -212 -2 -213 -3 0 -105 0 -105 188 -3 187 -2 0
-70 0 -70 -190 0 -190 0 0 -150 0 -150 -74 0 c-58 0 -75 3 -80 16 -8 20 -8
748 0 768 5 14 41 16 295 16 l289 0 0 -70z m4190 45 c62 -20 141 -72 184 -122
66 -78 99 -221 76 -335 -24 -122 -81 -200 -196 -264 -79 -44 -170 -56 -409
-52 l-170 3 -3 385 c-1 212 0 391 3 398 8 22 441 11 515 -13z m1490 -2 c68
-31 105 -71 119 -128 21 -83 0 -152 -62 -206 l-30 -26 34 -12 c57 -20 108
-103 109 -178 0 -43 -28 -125 -49 -139 -9 -7 -27 -21 -40 -33 -43 -38 -94 -45
-341 -45 l-235 -1 -3 398 -2 399 227 -4 c207 -3 232 -5 273 -25z m2380 -25
c18 -29 43 -69 56 -88 12 -19 33 -53 46 -76 63 -112 122 -204 128 -204 7 0 39
47 86 127 84 144 151 252 168 271 14 16 30 22 63 22 24 0 43 -2 43 -5 0 -3
-50 -87 -111 -187 -62 -101 -121 -199 -132 -218 -10 -19 -29 -48 -41 -65 -18
-26 -22 -48 -26 -175 l-5 -145 -47 -3 -48 -3 0 139 0 138 -80 130 c-44 71 -89
145 -100 164 -12 19 -46 75 -76 123 -30 49 -54 92 -54 98 0 5 22 9 49 9 48 0
49 -1 81 -52z"/>
<path d="M5723 5364 c-2 -7 -3 -29 -1 -50 l3 -39 1293 -3 1292 -2 0 50 c0 33
-4 50 -12 50 -7 0 -588 1 -1292 3 -953 1 -1280 -1 -1283 -9z"/>
<path d="M6389 4157 c-64 -34 -102 -92 -107 -168 -7 -89 35 -161 112 -198 116
-54 241 2 281 126 55 170 -128 323 -286 240z"/>
<path d="M7510 4164 c-77 -33 -123 -103 -123 -185 1 -92 47 -159 132 -195 140
-59 306 81 270 228 -31 130 -163 202 -279 152z"/>
<path d="M3413 2599 c-23 -4 -54 -14 -70 -22 -140 -74 -188 -278 -90 -386 12
-13 15 -21 7 -16 -8 4 -1 -6 16 -23 55 -54 110 -75 194 -76 85 0 138 21 191
77 49 50 62 85 67 172 4 91 -13 146 -67 203 -55 59 -158 88 -248 71z"/>
<path d="M4913 2599 c-84 -11 -154 -65 -190 -148 -21 -49 -21 -174 1 -224 70
-161 292 -206 427 -85 36 31 76 112 84 170 11 71 -22 163 -77 218 -64 62 -137
83 -245 69z"/>
<path d="M9270 2650 c-86 -21 -168 -87 -212 -173 -29 -57 -37 -180 -15 -235
37 -92 91 -151 173 -189 49 -23 73 -28 139 -28 70 0 88 4 147 32 120 59 178
156 175 293 -3 125 -65 221 -181 279 -51 25 -164 35 -226 21z"/>
<path d="M6260 2339 l0 -261 133 4 c126 3 137 5 192 33 49 25 65 40 95 90 32
54 35 66 35 135 0 69 -4 82 -33 131 -60 98 -133 129 -307 129 l-115 0 0 -261z"/>
<path d="M7700 2525 l0 -135 143 0 c179 1 213 8 255 56 38 44 41 80 11 134
-36 63 -71 74 -251 77 l-158 3 0 -135z"/>
<path d="M7700 2161 l0 -141 168 3 c181 4 231 14 268 54 32 35 41 101 18 148
-9 20 -24 39 -33 42 -9 2 -25 10 -36 16 -13 8 -86 13 -202 15 l-183 4 0 -141z"/>
</g>
</svg>
